<svg xmlns="http://www.w3.org/2000/svg" viewBox="0 0 544.8 247.96"><defs><style>.cls-1 { fill: #efce2b; } .cls-2 { fill: #002e93; }</style></defs><title>Datex II linker api</title><path d="M141.03 31.42L416.57 67.2 400.4 191.72l-275.54-35.8zM46 0a46 46 0 1 0 46 46A46 46 0 0 0 46 0zm0 78.58A32.55 32.55 0 1 1 78.58 46 32.55 32.55 0 0 1 46 78.58zM498.77 113a46 46 0 1 0 46 46 46 46 0 0 0-46-46zm0 78.58a32.55 32.55 0 1 1 32.55-32.55 32.55 32.55 0 0 1-32.55 32.6z" class="cls-1"/><path d="M458.73 158.08L77.75 66.04l8-16.4 377.93 92.04-4.95 16.4z" class="cls-1"/><path d="M140.14 177.32a4.4 4.4 0 0 1-4.6-4.23l-2.1-47.4a4.4 4.4 0 0 1 4.23-4.7 4.4 4.4 0 0 1 3.23 1.1 4.2 4.2 0 0 1 1.46 3.1l1.88 42.9 21.77-1a4.46 4.46 0 0 1 .4 8.9zm39.1-53.64a4.4 4.4 0 0 1 4.24-4.6 4.4 4.4 0 0 1 3.23 1.14 4.2 4.2 0 0 1 1.5 3.08l2.1 47.4a4.2 4.2 0 0 1-1.2 3.2 4.4 4.4 0 0 1-3.1 1.42 4.4 4.4 0 0 1-4.6-4.23zm33.4 12.62l1.46 33.34a4.3 4.3 0 0 1-1.15 3.15 4.16 4.16 0 0 1-3 1.4 4.22 4.22 0 0 1-3.15-1.2 4.27 4.27 0 0 1-1.42-3.1l-2.05-46.8a3.7 3.7 0 0 1 1.4-3.6 4.7 4.7 0 0 1 3.47-1.1 4.15 4.15 0 0 1 2.9 1.6l27.47 34.9-1.45-33.1a4.4 4.4 0 0 1 4.15-4.6 4.32 4.32 0 0 1 3.15 1.1 4.1 4.1 0 0 1 1.46 3l2 46.7a4.2 4.2 0 0 1-1.2 3.2 4.4 4.4 0 0 1-3.12 1.4 4.1 4.1 0 0 1-3.28-1.5 2.24 2.24 0 0 1-.42-.5zm62.26 33.82a4.42 4.42 0 0 1-7.68-2.8l-2.06-47a4.3 4.3 0 0 1 1.15-3.15 4.37 4.37 0 0 1 6.3-.28 4.32 4.32 0 0 1 1.4 3l1 23.1 24.9-27.3a4.44 4.44 0 0 1 6.6 6L289.6 140l18.88 22.6a3.9 3.9 0 0 1 .73 4.7 4 4 0 0 1-3.5 2.67 4.55 4.55 0 0 1-3.7-1.45l-18.3-22-8 8.87.5 11.4a4.27 4.27 0 0 1-1.2 3.2zm54.38-1.12a4.4 4.4 0 0 1-4.6-4.23l-2.1-47.4a4.4 4.4 0 0 1 4.23-4.6l26.3-1.16a4.3 4.3 0 0 1 3.2 1.2 4.2 4.2 0 0 1 1.5 3.1 4.34 4.34 0 0 1-1.2 3.3 4.24 4.24 0 0 1-3 1.5l-21.7 1 .7 14.7 18.7-.8a4.24 4.24 0 0 1 3.2 1.2 4.3 4.3 0 0 1 1.5 3.1 4.36 4.36 0 0 1-1.1 3.2 4.2 4.2 0 0 1-3.1 1.5l-18.7.8.7 14.8 21.8-1a4.46 4.46 0 0 1 .4 8.9l-26 1.2h-.16zM400 140.08q5.65 3.94 6 11.4a21.66 21.66 0 0 0 .53 4.74 4.35 4.35 0 0 1 2.47 6.65 4.6 4.6 0 0 1-3.86 2H405q-3.62.16-5.87-3.45a22.74 22.74 0 0 1-2.1-9.57 7 7 0 0 0-3.64-5.64 14 14 0 0 0-4.6-1.7l-9.5.4.7 17.5a4.2 4.2 0 0 1-1.2 3.2 4.4 4.4 0 0 1-3.1 1.5 4.4 4.4 0 0 1-4.6-4.2l-2.1-47.4a4.4 4.4 0 0 1 4.2-4.6l14.4-.6a16.53 16.53 0 0 1 12.4 4.6 17.2 17.2 0 0 1 5.5 12.4 16.05 16.05 0 0 1-5.7 13.1zm-11.15-4.5a8.24 8.24 0 0 0 7.9-8.6 8.08 8.08 0 0 0-2.66-5.76 7.93 7.93 0 0 0-6-2.2l-9.9.44.7 16.54zm-276.1-35.83l-2.23-47.4a4.4 4.4 0 0 1 4.2-4.62l9.5-.45a28.08 28.08 0 0 1 29.34 26.8 28.08 28.08 0 0 1-26.72 29.43l-9.48.5a4.4 4.4 0 0 1-4.62-4.2zm6.9-43.32l1.8 38.4 5-.23a18.74 18.74 0 0 0 13.27-6.3 19.27 19.27 0 0 0-1.27-27.1 18.4 18.4 0 0 0-13.8-5zm83.55 40.7l-4.43-10.27-19.52.9-3.45 10.65a4 4 0 0 1-3.76 3 4.3 4.3 0 0 1-4.04-1.7 4.57 4.57 0 0 1-.67-4l15.54-48.1a4.85 4.85 0 0 1 1.63-2.1 4 4 0 0 1 2.5-.8 4 4 0 0 1 4.34 2.5l20 46.5a4.58 4.58 0 0 1-.34 4.1 4.3 4.3 0 0 1-3.88 2.2 3.83 3.83 0 0 1-3.93-2.6zM182 78.8l13-.62-7.32-17zm75.55-36.48A4.28 4.28 0 0 1 259 45.4a4.34 4.34 0 0 1-1.18 3.23 4.24 4.24 0 0 1-3 1.47l-12.82.6 2 42.9a4.42 4.42 0 1 1-8.84.4l-2-42.9-12.7.6a4.2 4.2 0 0 1-3.2-1.17 4.4 4.4 0 0 1-1.42-3.1A4.4 4.4 0 0 1 220 42.8l34.3-1.63a4.27 4.27 0 0 1 3.25 1.14zm21.53 54.06a4.4 4.4 0 0 1-4.62-4.2l-2.22-47.4a4.4 4.4 0 0 1 4.2-4.63l26.28-1.23a4.3 4.3 0 0 1 3.15 1.14 4.2 4.2 0 0 1 1.47 3.07 4.33 4.33 0 0 1-1.18 3.24 4.25 4.25 0 0 1-3 1.47l-21.77 1 .6 14.7 18.7-.88a4.25 4.25 0 0 1 3.1 1.18 4.3 4.3 0 0 1 1.4 3.07 4.36 4.36 0 0 1-1.2 3.2 4.2 4.2 0 0 1-3.1 1.5l-18.7.9.7 14.8 21.7-1a4.53 4.53 0 0 1 4.62 4.3 4.3 4.3 0 0 1-1.2 3.2 4.24 4.24 0 0 1-3 1.5l-26 1.2h-.1zm76.62-59.26a4.45 4.45 0 0 1 5.18 3.42 4.42 4.42 0 0 1-.6 3.33L346 65.3l16.24 20.18a4.14 4.14 0 0 1 .5 4.57 3.92 3.92 0 0 1-3.5 2.58 4.6 4.6 0 0 1-3.9-1.67L340.94 73l-12.7 19.23a4.62 4.62 0 0 1-3.73 2 3.92 3.92 0 0 1-3.7-2.23 4.14 4.14 0 0 1 .1-4.6l14.3-21.6-16.2-20a4.4 4.4 0 0 1-.9-3.25 4.24 4.24 0 0 1 1.7-2.93 4.3 4.3 0 0 1 3.3-1 4.1 4.1 0 0 1 2.9 1.68l14.5 17.8L353 39a4.34 4.34 0 0 1 2.8-1.9zm46.84 1.55a4.4 4.4 0 0 1 4.2-4.67 4.4 4.4 0 0 1 3.26 1.18 4.2 4.2 0 0 1 1.47 3.07l2.22 47.4a4.2 4.2 0 0 1-1.2 3.2 4.4 4.4 0 0 1-3.1 1.43 4.4 4.4 0 0 1-4.7-4.2zM427 37.52a4.4 4.4 0 0 1 4.2-4.63 4.4 4.4 0 0 1 3.28 1.1 4.2 4.2 0 0 1 1.52 3.1l2.22 47.4a4.2 4.2 0 0 1-1.22 3.2 4.4 4.4 0 0 1-3.1 1.4 4.4 4.4 0 0 1-4.64-4.2zm-51.54 153.93a6.92 6.92 0 0 1-.75-9.3 5.88 5.88 0 0 1 4.3-2.3 6 6 0 0 1 3.6.9 1.65 1.65 0 0 1 .5-.88 1.32 1.32 0 0 1 .9-.4 1.3 1.3 0 0 1 1 .34 1.4 1.4 0 0 1 .5 1l.9 10.4a1.35 1.35 0 0 1-.3 1 1.3 1.3 0 0 1-.9.5 1.34 1.34 0 0 1-.9-.2 1.57 1.57 0 0 1-.5-.8 6 6 0 0 1-3.4 1.5 5.9 5.9 0 0 1-4.6-1.5zm.64-4.72a3.87 3.87 0 0 0 1.17 2.6 3.16 3.16 0 0 0 2.56.87 3.25 3.25 0 0 0 2.4-1.28 3.8 3.8 0 0 0 .78-2.73 3.86 3.86 0 0 0-1.2-2.6 3.22 3.22 0 0 0-2.5-1 3.17 3.17 0 0 0-2.3 1.3 3.9 3.9 0 0 0-.7 2.7zm18.2 9.67a1.4 1.4 0 0 1-1 .53 1.36 1.36 0 0 1-1-.35 1.38 1.38 0 0 1-.5-1l-1.23-15.28a1.36 1.36 0 0 1 .33-1 1.33 1.33 0 0 1 .94-.48 1.55 1.55 0 0 1 1 .24 1.23 1.23 0 0 1 .55.72 6.46 6.46 0 0 1 3.4-1.37 6 6 0 0 1 4.6 1.6 6.5 6.5 0 0 1 2.2 4.5 6.37 6.37 0 0 1-1.5 4.8 6.08 6.08 0 0 1-4.4 2.3 5.88 5.88 0 0 1-3.6-.8l.3 4.7a1.37 1.37 0 0 1-.4 1.1zm5.33-14.22a3.33 3.33 0 0 0-2.6-.88 3.26 3.26 0 0 0-2.4 1.3 3.86 3.86 0 0 0-.78 2.8 3.26 3.26 0 0 0 1.23 2.46 3.2 3.2 0 0 0 2.55.9 3.32 3.32 0 0 0 2.4-1.3 3.7 3.7 0 0 0 .84-2.7 3.92 3.92 0 0 0-1.24-2.6zm10.7-8.7v.55a1.43 1.43 0 0 1-.32 1.06 1.35 1.35 0 0 1-1 .5 1.38 1.38 0 0 1-1-.4 1.4 1.4 0 0 1-.5-1v-.6a1.43 1.43 0 1 1 2.9-.3zm-2.1 4.47a1.47 1.47 0 0 1 2-.16 1.4 1.4 0 0 1 .5 1l.86 10.2a1.38 1.38 0 0 1-.4 1 1.36 1.36 0 0 1-1 .5 1.44 1.44 0 0 1-1.6-1.3l-.8-10.2a1.4 1.4 0 0 1 .3-1.1z" class="cls-2"/></svg>
